# xmcd
#
# Track frame offsets: 
#        150
#        15297
#        31667
#        44532
#        58317
#        71232
#        83457
#        99792
#        112907
#        124120
#        139092
#        156605
#        168000
#
# Disc length: 2381 seconds
#
# Revision: 0
# Processed by: cddbd v1.5.1PL0 Copyright (c) Steve Scherf et al.
# Submitted via: ExactAudioCopy v0.95a5
#
DISCID=9e094b0d
DTITLE=Michelle Nixon - What More Should I Say
DYEAR=2005
DGENRE=Bluegrass
TTITLE0=I Know Rain
TTITLE1=What More Should I Say
TTITLE2=If It Ain't Love
TTITLE3=Blue Kentucky Girl
TTITLE4=I Know
TTITLE5=Prisoner Of Your Love
TTITLE6=Tree Of Hearts
TTITLE7=Roses In The Snow
TTITLE8=Leavin's Heavy On My Mind
TTITLE9=Ramblin' Fever
TTITLE10=Heart Of Stone
TTITLE11=Slippin' Away
TTITLE12=We Must Have Been Out Of Our Minds
EXTD=
EXTT0=
EXTT1=
EXTT2=
EXTT3=
EXTT4=
EXTT5=
EXTT6=
EXTT7=
EXTT8=
EXTT9=
EXTT10=
EXTT11=
EXTT12=
PLAYORDER=
